<svg width="64" height="64" viewBox="0 0 64 64" xmlns="http://www.w3.org/2000/svg" version="1.1">
  <g fill="currentColor" fill-rule="evenodd">
    <path d="M32 10c12.1503 0 22 9.8497 22 22s-9.8497 22-22 22-22-9.8497-22-22 9.8497-22 22-22zm0 8c-7.732 0-14 6.268-14 14s6.268 14 14 14 14-6.268 14-14-6.268-14-14-14z"/>
    <circle cx="32" cy="32" r="8"/>
    <path d="M32 4c1.1046 0 2 0.8954 2 2v6c0 1.1046-0.8954 2-2 2s-2-0.8954-2-2V6c0-1.1046 0.8954-2 2-2zm0 44c1.1046 0 2 0.8954 2 2v6c0 1.1046-0.8954 2-2 2s-2-0.8954-2-2v-6c0-1.1046 0.8954-2 2-2zM10 32c0-1.1046 0.8954-2 2-2h6c1.1046 0 2 0.8954 2 2s-0.8954 2-2 2h-6c-1.1046 0-2-0.8954-2-2zm34 0c0-1.1046 0.8954-2 2-2h6c1.1046 0 2 0.8954 2 2s-0.8954 2-2 2h-6c-1.1046 0-2-0.8954-2-2z" fill-opacity="0.85"/>
    <path d="M16.393 47.607c0.781-0.781 2.047-0.781 2.828 0l4.243 4.243c0.781 0.781 0.781 2.047 0 2.828-0.781 0.781-2.047 0.781-2.828 0l-4.243-4.243c-0.781-0.781-0.781-2.047 0-2.828zm27.415-27.415c0.781-0.781 2.047-0.781 2.828 0l4.243 4.243c0.781 0.781 0.781 2.047 0 2.828-0.781 0.781-2.047 0.781-2.828 0l-4.243-4.243c-0.781-0.781-0.781-2.047 0-2.828zm0 27.415c0.781 0.781 0.781 2.047 0 2.828l-4.243 4.243c-0.781 0.781-2.047 0.781-2.828 0-0.781-0.781-0.781-2.047 0-2.828l4.243-4.243c0.781-0.781 2.047-0.781 2.828 0zM16.393 16.393c0.781 0.781 0.781 2.047 0 2.828l-4.243 4.243c-0.781 0.781-2.047 0.781-2.828 0-0.781-0.781-0.781-2.047 0-2.828l4.243-4.243c0.781-0.781 2.047-0.781 2.828 0z" fill-opacity="0.75"/>
  </g>
</svg>
