<svg width="64" height="64" viewBox="0 0 64 64" xmlns="http://www.w3.org/2000/svg" version="1.1">
  <g fill="currentColor" fill-rule="evenodd">
    <path d="M16 8h32c4.9706 0 9 4.0294 9 9v30c0 4.9706-4.0294 9-9 9H16c-4.9706 0-9-4.0294-9-9V17c0-4.9706 4.0294-9 9-9zm0 6c-1.6569 0-3 1.3431-3 3v30c0 1.6569 1.3431 3 3 3h32c1.6569 0 3-1.3431 3-3V17c0-1.6569-1.3431-3-3-3H16z"/>
    <path d="M20 16h24c3.866 0 7 3.134 7 7v16c0 3.866-3.134 7-7 7H20c-3.866 0-7-3.134-7-7V23c0-3.866 3.134-7 7-7zm1 8.75-4 5.5V39c0 1.6569 1.3431 3 3 3h24c1.6569 0 3-1.3431 3-3v-2l-5.5-7.25-6.25 7.5-8.5-11.5z"/>
    <circle cx="43" cy="23" r="4" fill-opacity="0.9"/>
  </g>
</svg>
