<svg width="64" height="64" viewBox="0 0 64 64" xmlns="http://www.w3.org/2000/svg" version="1.1">
  <g fill="currentColor" fill-rule="evenodd">
    <path d="M24 8h16l2 4h10c1.1046 0 2 0.8954 2 2s-0.8954 2-2 2h-2l-2.5 34.5C47.1419 53.9112 44.1024 57 40.2222 57H23.7778c-3.8802 0-6.9197-3.0888-7.2778-6.5L14 16h-2c-1.1046 0-2-0.8954-2-2s0.8954-2 2-2h10l2-4zm1.3333 8L22 49.3333C22 50.8061 23.1939 52 24.6667 52h14.6666C40.8061 52 42 50.8061 42 49.3333L40.6667 16H25.3333z"/>
    <path d="M28 24c1.1046 0 2 0.8954 2 2v16c0 1.1046-0.8954 2-2 2s-2-0.8954-2-2V26c0-1.1046 0.8954-2 2-2zm8 0c1.1046 0 2 0.8954 2 2v16c0 1.1046-0.8954 2-2 2s-2-0.8954-2-2V26c0-1.1046 0.8954-2 2-2z" fill-opacity="0.85"/>
  </g>
</svg>
